<?xml version="1.0" standalone="no"?>
<!DOCTYPE svg PUBLIC "-//W3C//DTD SVG 20010904//EN"
 "http://www.w3.org/TR/2001/REC-SVG-20010904/DTD/svg10.dtd">
<svg version="1.0" xmlns="http://www.w3.org/2000/svg"
 width="500.000000pt" height="333.000000pt" viewBox="0 0 500.000000 333.000000"
 preserveAspectRatio="xMidYMid meet">

<g transform="translate(0.000000,333.000000) scale(0.100000,-0.100000)"
fill="#000000" stroke="none">
<path d="M0 2709 c0 -554 2 -621 15 -615 9 3 156 49 328 102 294 90 917 290
1482 474 138 45 291 95 340 111 163 52 342 79 405 60 21 -6 96 -61 185 -136
83 -69 161 -128 175 -131 14 -3 54 -19 90 -36 76 -36 196 -78 221 -78 10 0 25
13 34 29 37 72 89 77 248 25 71 -22 120 -33 136 -29 13 3 84 51 157 105 177
133 186 137 261 117 32 -8 72 -21 90 -28 30 -12 39 -10 115 21 102 42 152 44
225 7 59 -30 73 -32 119 -15 27 10 45 8 107 -10 77 -23 139 -27 221 -16 l46 7
0 328 0 329 -2500 0 -2500 0 0 -621z"/>
<path d="M2125 2657 l-30 -11 29 -6 c16 -3 31 -11 33 -17 6 -17 -85 -73 -105
-66 -14 5 -14 3 2 -15 23 -27 33 -28 40 -4 3 9 30 35 60 56 l54 39 -23 19
c-13 10 -25 18 -27 17 -1 0 -16 -6 -33 -12z"/>
<path d="M4427 2664 c-12 -12 4 -24 33 -24 16 0 31 4 34 9 10 16 -52 30 -67
15z"/>
<path d="M4722 2623 c-7 -12 -7 -32 -1 -58 13 -55 108 -432 120 -476 7 -30 15
-38 48 -47 21 -7 48 -12 61 -12 19 0 21 4 16 28 -3 15 -9 43 -12 62 l-5 35 15
-25 c8 -14 16 -38 16 -55 1 -16 5 -39 10 -50 5 -12 9 99 9 271 l1 290 -92 22
c-153 35 -175 37 -186 15z m220 -418 c3 -13 1 -22 -3 -19 -9 5 -13 44 -5 44 2
0 6 -11 8 -25z"/>
<path d="M1974 2611 c15 -16 22 -18 33 -10 16 14 16 14 -22 23 -29 7 -29 7
-11 -13z"/>
<path d="M1780 2574 c-36 -24 -110 -96 -110 -107 0 -5 52 -7 118 -5 155 5 219
34 145 67 -19 8 -33 23 -35 35 -2 17 -11 22 -48 24 -30 2 -54 -3 -70 -14z"/>
<path d="M4160 2574 c0 -9 21 -55 46 -103 26 -47 65 -120 87 -161 52 -96 64
-110 99 -110 36 0 36 16 -2 68 -16 23 -30 44 -30 46 0 3 -14 29 -31 58 -41 68
-89 157 -89 163 0 11 80 3 135 -13 58 -18 59 -19 30 -27 -16 -4 -38 -7 -47 -6
-22 3 -23 -8 -3 -45 10 -20 23 -29 42 -31 16 0 59 -8 98 -17 38 -9 83 -16 98
-16 26 0 28 -3 26 -34 -2 -19 4 -44 14 -59 11 -18 14 -33 9 -48 -8 -20 -10
-19 -25 19 -9 23 -26 53 -39 67 -19 23 -29 25 -96 25 -86 0 -85 5 -17 -105 48
-76 61 -85 174 -119 70 -21 72 -21 55 13 -8 16 -14 48 -13 72 1 41 -14 120
-28 142 -3 5 -7 26 -8 46 -4 63 -22 143 -34 151 -7 4 -61 10 -119 13 -59 4
-125 9 -147 11 -156 18 -185 18 -185 0z"/>
<path d="M1830 2394 c-118 -40 -415 -141 -660 -224 -245 -84 -608 -206 -807
-272 l-363 -119 0 -214 c0 -211 0 -214 22 -221 l21 -6 -24 -14 -24 -13 30 -2
c21 -1 24 -3 10 -6 -40 -10 -39 -23 1 -24 l39 -1 -40 -14 -40 -14 36 4 c55 6
69 -10 15 -18 -65 -10 -57 -23 11 -20 l58 4 -45 -14 -45 -14 56 -1 c50 -1 59
-4 83 -33 36 -44 34 -51 -26 -82 -39 -20 -53 -17 -61 13 -6 23 19 36 47 25 9
-3 16 -1 16 5 0 7 -10 16 -22 20 l-23 9 25 11 c21 9 15 11 -38 8 -34 -2 -67
-8 -74 -15 -8 -8 -2 -10 28 -6 l39 5 -38 -17 c-28 -12 -35 -19 -25 -25 10 -7
10 -11 0 -21 -16 -16 -16 -31 1 -22 9 6 9 4 0 -7 -18 -18 -16 -32 2 -25 8 3
15 1 15 -4 0 -6 -4 -10 -10 -10 -5 0 -10 -4 -10 -10 0 -6 9 -6 26 0 32 13 37
12 29 0 -9 -14 1 -12 37 6 28 15 30 15 25 0 -5 -13 -3 -14 13 -4 25 16 35 5
20 -22 -11 -20 -10 -21 9 -11 29 16 33 14 26 -11 -6 -19 -5 -21 6 -10 19 18
28 15 22 -8 -9 -33 15 -22 43 20 15 22 28 40 30 40 6 0 -15 -49 -33 -77 -17
-27 -17 -27 0 -14 23 19 57 83 59 115 1 14 6 22 11 19 5 -3 7 -26 4 -51 -4
-36 -13 -52 -46 -84 -39 -38 -40 -40 -25 -64 11 -16 26 -24 45 -24 36 0 139
-38 139 -51 0 -6 -5 -7 -10 -4 -6 3 -10 2 -10 -3 0 -5 11 -14 25 -20 15 -7 25
-20 25 -32 0 -23 -10 -26 -28 -8 -10 10 -11 5 -6 -21 7 -31 6 -33 -14 -22 -30
16 -32 14 -25 -19 6 -34 2 -36 -32 -14 -13 9 -32 14 -42 11 -14 -4 -14 -5 4
-6 32 -2 61 -61 30 -61 -8 0 -22 9 -32 20 -10 11 -25 20 -33 20 -12 0 -12 3
-2 15 20 24 -61 20 -93 -5 -14 -11 -28 -20 -32 -20 -8 0 -35 -26 -35 -34 0 -3
7 -6 15 -6 8 0 24 -9 34 -19 11 -11 28 -24 39 -30 21 -11 90 -4 109 12 7 5 23
7 36 3 17 -4 27 1 38 16 7 12 28 36 44 54 17 18 37 41 46 51 9 10 45 43 79 73
35 30 74 66 88 79 56 52 134 111 147 111 8 0 18 7 23 15 12 23 125 105 143
105 9 0 30 12 46 28 17 15 59 40 94 56 35 15 71 32 79 37 67 39 191 98 220
104 19 4 40 11 45 15 17 13 185 67 290 94 155 39 255 55 448 73 178 17 206 26
153 51 -14 6 -30 20 -36 31 -20 39 42 75 94 55 19 -7 21 -35 4 -52 -9 -9 -8
-12 4 -12 15 0 33 26 30 42 -1 4 10 15 23 24 14 9 31 26 37 38 8 14 0 11 -22
-11 -19 -18 -37 -33 -42 -33 -13 0 -9 17 7 30 8 7 15 16 15 21 0 4 -12 -4 -27
-19 -29 -29 -42 -18 -23 20 9 19 6 18 -13 -6 -26 -29 -51 -28 -40 2 8 22 -7 9
-21 -20 -13 -25 -36 -36 -36 -16 0 7 7 26 15 42 15 29 15 29 -3 13 -26 -24
-33 -21 -27 11 6 24 5 25 -6 7 -17 -28 -16 -28 -28 -20 -8 4 -8 13 0 28 10 21
9 21 -5 3 -8 -10 -17 -24 -19 -30 -2 -6 -8 -8 -12 -4 -5 5 -3 20 4 35 l11 28
-20 -24 c-11 -13 -20 -34 -20 -47 0 -31 -18 -31 -26 1 -4 16 1 35 16 57 l22
33 -26 -28 c-33 -35 -33 -71 -1 -102 27 -28 56 -36 35 -10 -20 25 -4 47 31 43
40 -4 59 -29 39 -53 -21 -25 -103 -15 -135 15 -33 31 -32 68 6 113 17 20 28
41 25 46 -3 5 -24 7 -46 4 -26 -4 -40 -2 -40 6 0 6 -11 11 -24 11 -30 0 -56 9
-56 21 0 4 7 5 17 2 11 -4 14 -3 9 5 -4 7 -17 12 -29 12 -28 0 -67 27 -67 46
0 11 6 10 28 -6 15 -11 46 -23 67 -25 l40 -5 -39 10 c-41 11 -76 35 -76 53 0
6 9 2 20 -8 15 -13 39 -19 83 -21 l62 -2 -56 6 c-58 7 -89 24 -89 49 0 11 9 7
31 -11 17 -15 42 -26 57 -25 26 1 26 1 -5 12 -36 13 -70 43 -61 53 4 3 16 -4
27 -15 15 -15 34 -21 69 -21 34 0 43 -3 32 -10 -42 -27 17 -4 105 41 89 46
100 49 104 33 4 -23 20 -44 34 -44 5 0 3 8 -6 18 -10 10 -14 22 -10 25 12 12
22 7 17 -8 -4 -10 0 -15 14 -15 21 0 39 -17 29 -27 -3 -2 -23 -11 -44 -19
l-38 -15 45 6 c65 9 130 40 130 63 0 22 -18 46 -45 60 -19 10 -18 11 8 23 24
11 31 9 69 -17 23 -16 87 -73 142 -127 l101 -97 -30 -23 c-16 -12 -68 -60
-115 -107 -47 -47 -56 -58 -20 -24 88 82 154 134 171 134 8 0 -6 -17 -31 -38
-54 -45 -150 -141 -150 -150 0 -4 33 25 73 64 70 70 114 104 129 104 5 0 -34
-42 -85 -92 -52 -51 -62 -63 -23 -27 74 68 123 105 131 97 3 -2 -24 -30 -58
-60 -35 -31 -88 -85 -118 -120 -37 -43 -23 -32 46 38 94 95 145 136 145 116 0
-4 -14 -21 -31 -38 -17 -16 -54 -56 -82 -89 -38 -44 -28 -37 38 30 103 103
129 99 31 -5 -36 -39 -66 -75 -66 -81 0 -6 12 4 27 23 41 51 106 118 115 118
15 0 8 -27 -13 -46 -25 -22 -48 -60 -30 -49 7 4 20 1 29 -7 15 -12 16 -11 3 5
-12 15 -11 20 9 37 29 25 32 25 58 -3 31 -33 27 -45 -5 -16 -25 22 -26 22 -9
1 22 -25 15 -42 -9 -22 -13 11 -14 10 -9 -4 4 -10 1 -16 -7 -16 -10 0 -10 -3
-2 -11 9 -9 25 -5 64 15 29 14 62 26 72 26 16 0 17 3 7 14 -6 8 -17 13 -23 11
-15 -6 -44 12 -34 21 3 4 13 1 22 -6 12 -10 15 -10 15 0 0 9 11 11 38 6 21 -3
94 -10 163 -16 68 -6 134 -12 147 -15 21 -5 293 -236 300 -255 4 -12 -715
-374 -751 -378 -37 -4 -44 19 -21 70 22 50 107 138 133 138 10 0 39 17 64 37
l47 38 -34 17 c-47 24 -86 74 -86 109 0 24 8 35 48 60 39 25 55 30 90 26 23
-3 42 -1 42 4 0 5 9 9 20 9 25 0 25 -8 3 -27 -16 -13 -15 -14 11 -8 20 4 32 1
41 -12 7 -10 17 -14 22 -10 4 5 -3 17 -17 27 -22 17 -24 21 -12 41 12 18 11
24 -3 38 -12 12 -33 16 -87 14 -39 -1 -74 -7 -78 -13 -5 -8 -17 -3 -36 13 -27
22 -31 23 -61 10 -38 -15 -40 -23 -13 -48 18 -17 19 -42 0 -30 -4 3 -10 0 -12
-7 -2 -6 -24 -12 -48 -12 -56 -1 -68 -28 -20 -45 40 -13 34 -34 -11 -41 -19
-3 -52 -14 -74 -24 -33 -15 -64 -18 -169 -18 l-129 1 23 -24 c37 -39 18 -46
-95 -35 -213 20 -438 11 -628 -27 -70 -14 -92 -15 -108 -5 -16 10 -19 9 -19
-7 0 -26 -146 -77 -169 -58 -12 10 -14 9 -9 -4 5 -12 -16 -25 -91 -59 -53 -24
-103 -49 -111 -56 -8 -6 -25 -15 -37 -18 -11 -4 -27 -13 -33 -22 -9 -10 -16
-11 -26 -3 -7 6 -18 8 -24 4 -19 -12 1 -25 37 -25 74 0 138 -112 96 -168 -39
-53 -137 -86 -212 -72 -36 6 -55 18 -88 55 -24 25 -43 52 -43 58 -1 17 -29
-35 -30 -53 0 -8 -24 -40 -53 -70 -28 -30 -65 -73 -80 -95 -53 -73 -117 -175
-117 -184 0 -5 -7 -14 -15 -21 -8 -7 -15 -19 -15 -27 0 -27 13 -35 155 -98 68
-30 281 -101 331 -111 23 -4 34 -12 36 -26 4 -30 29 -42 69 -34 44 9 562 267
567 283 2 6 -10 19 -25 28 -28 16 -64 63 -92 117 -22 44 -2 78 67 110 31 15
114 54 184 88 247 118 300 139 319 127 14 -8 15 -15 8 -30 -6 -10 -8 -25 -5
-32 5 -14 -26 -61 -56 -83 -22 -16 -22 -34 -4 -87 10 -26 20 -39 30 -37 8 1
80 35 158 74 79 39 226 110 328 159 102 49 192 93 200 99 8 5 33 17 55 27 49
20 698 343 705 350 3 3 -22 28 -54 57 -33 28 -152 132 -265 231 -361 317 -529
461 -690 594 -24 20 -83 70 -130 111 -120 104 -141 117 -48 29 l79 -74 -67
-112 c-63 -105 -70 -113 -113 -127 -25 -9 -62 -16 -81 -17 -32 -1 -33 -2 -11
-9 l25 -7 -26 -7 c-39 -11 -84 -3 -84 14 0 8 8 16 18 18 10 2 17 -3 17 -12 0
-9 5 -16 10 -16 18 0 10 29 -10 35 -26 8 -60 -3 -60 -19 0 -8 10 -21 23 -29
19 -14 20 -16 4 -16 -11 -1 -15 -5 -11 -13 5 -8 -2 -9 -26 -5 -18 4 -41 7 -51
7 -12 0 -16 5 -13 15 4 9 -4 19 -21 27 -22 10 -34 9 -71 -5 l-45 -17 -104 50
c-127 61 -312 123 -453 151 -59 12 -110 25 -115 29 -8 7 22 18 388 145 299
104 327 114 333 120 13 13 -37 -2 -238 -71z m855 -194 c69 -63 339 -304 353
-315 7 -5 38 -33 68 -62 30 -28 60 -54 67 -57 9 -3 8 -8 -3 -16 -13 -9 -12
-10 5 -6 15 4 40 -13 97 -63 73 -65 75 -68 45 -66 -18 2 -39 3 -46 4 -11 1
-12 4 -3 13 8 8 15 8 27 -2 8 -7 15 -8 15 -2 0 17 -29 22 -55 10 -21 -10 -27
-8 -39 7 -9 12 -21 16 -39 13 -15 -3 -28 -1 -29 3 -5 14 -68 30 -65 17 4 -19
-23 -20 -30 -1 -4 10 -14 24 -22 31 -13 11 -12 11 8 1 21 -10 26 -9 37 6 8 10
11 23 7 28 -4 7 1 8 13 3 10 -4 15 -4 12 -1 -4 4 -3 18 2 31 8 19 6 24 -8 25
-26 2 -54 7 -82 14 -56 14 -68 13 -62 -7 2 -10 -1 -18 -7 -18 -7 0 -9 4 -6 10
3 6 -1 7 -9 4 -14 -6 -21 5 -17 29 0 4 -7 7 -17 7 -11 0 -27 9 -37 20 -17 19
-17 20 23 16 42 -5 61 11 39 33 -15 15 5 14 23 -1 12 -11 12 -10 2 3 -7 9 -11
22 -10 29 3 14 -49 33 -54 19 -2 -5 -13 -6 -25 -3 -13 4 -21 10 -18 14 3 5 -5
6 -16 3 -12 -4 -24 -15 -27 -25 -6 -24 -23 -18 -38 11 -7 13 -17 28 -24 34
-10 9 -11 9 -6 0 11 -20 1 -15 -20 9 -19 21 -19 21 5 15 28 -7 65 9 55 25 -4
5 -1 14 5 18 9 5 9 11 -3 22 -10 11 -31 15 -63 13 -64 -3 -65 -4 -58 -14 13
-22 -15 -19 -39 4 -15 14 -34 25 -42 25 -8 0 -12 5 -9 10 3 6 18 10 32 10 20
0 24 4 20 20 -3 11 -1 20 4 20 6 0 5 9 -1 20 -13 25 -4 63 13 53 7 -4 30 -23
52 -43z m-1030 -100 c3 -6 -1 -7 -9 -4 -18 7 -21 14 -7 14 6 0 13 -4 16 -10z
m948 -40 c6 0 8 -2 5 -5 -12 -12 -64 17 -65 36 -2 19 0 19 24 -5 14 -14 30
-26 36 -26z m-908 22 c-3 -3 -11 0 -18 7 -9 10 -8 11 6 5 10 -3 15 -9 12 -12z
m40 -12 c3 -6 -1 -7 -9 -4 -18 7 -21 14 -7 14 6 0 13 -4 16 -10z m1000 0 c3
-5 -3 -10 -15 -10 -12 0 -18 5 -15 10 3 6 10 10 15 10 5 0 12 -4 15 -10z
m-905 -26 c37 -15 54 -34 30 -34 -24 0 -7 -18 27 -28 26 -8 39 -8 44 -1 4 7
17 6 38 -5 l32 -17 -48 -60 c-207 -263 -605 -485 -1073 -598 -280 -67 -688
-104 -731 -65 -17 15 -15 54 2 54 14 0 10 50 -3 51 -7 1 -24 2 -38 2 -23 2
-70 55 -70 80 0 6 27 7 73 2 232 -25 490 -19 662 14 166 32 366 96 484 155 40
20 82 36 92 36 10 0 19 5 19 10 0 6 5 10 10 10 6 0 10 -7 10 -15 0 -9 6 -12
15 -9 24 9 18 28 -15 47 -25 15 -29 16 -24 2 10 -26 -34 -18 -62 12 -27 29
-39 65 -30 88 8 22 104 65 146 65 44 0 98 -27 123 -62 24 -33 14 -57 -14 -32
-10 9 -19 12 -19 7 0 -6 7 -16 15 -23 19 -16 19 -50 0 -50 -8 0 -24 14 -37 30
-12 17 -26 30 -31 30 -5 0 3 -14 17 -31 14 -17 26 -36 26 -42 0 -15 35 -38 44
-30 3 3 0 13 -7 21 -10 13 -9 15 11 10 15 -4 22 -2 22 7 0 11 7 11 32 4 18 -5
34 -9 34 -9 1 0 5 11 8 24 9 37 56 87 75 82 11 -4 21 5 32 27 8 18 25 36 37
42 12 5 22 15 22 22 0 12 12 17 35 14 6 0 12 14 13 32 1 17 9 37 18 44 11 8
12 13 4 18 -7 4 -18 -2 -26 -14 -9 -12 -32 -30 -52 -41 -22 -11 -30 -19 -19
-20 44 -1 3 -48 -69 -77 -41 -17 -58 -33 -34 -33 6 0 -3 -14 -21 -31 -36 -35
-68 -35 -85 -1 -10 21 -6 29 50 85 61 62 146 180 146 204 0 17 11 16 60 -3z
m815 -2 c-3 -3 -11 0 -18 7 -9 10 -8 11 6 5 10 -3 15 -9 12 -12z m41 -19 c-4
-31 0 -43 21 -65 15 -16 33 -28 40 -28 7 0 13 -4 13 -9 0 -5 -18 -2 -40 6 -41
17 -51 33 -54 89 -1 29 3 38 22 43 1 1 0 -16 -2 -36z m-1761 -19 c20 -25 36
-47 34 -49 -9 -8 -503 -174 -507 -170 -9 8 19 33 44 39 20 5 23 10 15 25 -15
27 -1 34 19 9 17 -22 40 -18 40 7 0 8 -10 21 -22 29 -18 13 -20 18 -10 28 9
10 313 122 343 127 4 1 23 -19 44 -45z m780 -2 c-3 -3 -11 0 -18 7 -9 10 -8
11 6 5 10 -3 15 -9 12 -12z m764 -18 c17 -14 31 -30 31 -36 0 -6 -16 4 -35 21
-45 39 -58 41 -16 2 31 -29 40 -51 21 -51 -5 0 -10 6 -10 14 0 8 -12 24 -26
35 -14 11 -23 25 -19 31 10 15 21 12 54 -16z m-331 -11 c2 -8 -5 -13 -16 -13
-11 0 -23 6 -25 13 -3 7 -6 5 -6 -5 -1 -12 9 -19 32 -22 17 -3 43 -7 57 -10
14 -2 -2 -3 -34 -2 -45 1 -62 5 -70 19 -8 14 -8 20 4 27 19 13 52 9 58 -7z
m-451 1 c-3 -3 -12 -4 -19 -1 -8 3 -5 6 6 6 11 1 17 -2 13 -5z m439 -55 l49
-6 -48 -2 c-59 -1 -87 12 -87 42 0 22 1 22 19 -2 14 -18 33 -27 67 -32z
m-1146 11 c0 -5 -5 -10 -10 -10 -6 0 -127 -40 -268 -90 -141 -49 -263 -90
-271 -90 -37 0 17 23 184 80 99 34 216 74 260 90 89 32 105 35 105 20z m1905
-11 c-4 -5 -13 -9 -20 -9 -19 0 -33 -29 -29 -57 3 -15 -1 -23 -10 -23 -10 0
-13 8 -10 27 3 15 7 30 10 34 2 4 -1 10 -6 12 -6 3 -5 4 2 3 6 -1 20 6 30 16
18 18 44 16 33 -3z m21 -146 c-3 -3 -11 -1 -18 3 -7 5 -15 9 -18 9 -3 0 -15 8
-28 17 -16 11 -19 17 -10 20 13 5 82 -41 74 -49z m115 -8 c-18 -8 -36 -15 -40
-15 -13 1 45 29 59 29 8 0 0 -6 -19 -14z m-44 -39 c-3 -8 1 -20 9 -27 8 -6 12
-14 9 -17 -3 -3 1 -12 8 -20 10 -13 9 -14 -10 -3 -24 12 -40 52 -28 70 9 16
18 13 12 -3z m-1397 -6 c0 -5 -4 -10 -10 -10 -5 0 -10 5 -10 10 0 6 5 10 10
10 6 0 10 -4 10 -10z m1418 -145 c-9 -9 -59 36 -52 47 4 6 17 0 32 -16 14 -14
23 -28 20 -31z m-988 -29 c0 -2 -7 -9 -15 -16 -13 -11 -14 -10 -9 4 5 14 24
23 24 12z m143 -22 c7 -7 -13 -54 -23 -54 -4 0 -5 14 -2 30 4 29 12 37 25 24z
m905 -16 c-3 -7 -11 -13 -18 -13 -7 0 -15 6 -17 13 -3 7 4 12 17 12 13 0 20
-5 18 -12z m-1008 -2 c0 -2 -7 -9 -15 -16 -13 -11 -14 -10 -9 4 5 14 24 23 24
12z m250 -5 c0 -17 -18 -21 -24 -6 -3 9 0 15 9 15 8 0 15 -4 15 -9z m887 -6
c0 -9 -12 -18 -26 -21 -14 -3 -37 -8 -50 -10 -14 -3 -37 -14 -52 -25 -15 -10
-34 -19 -42 -19 -9 0 -19 -4 -22 -10 -8 -13 -55 -13 -75 0 -12 8 -12 10 4 16
11 4 21 2 27 -7 7 -12 12 -12 29 -1 12 7 49 27 83 45 94 49 124 56 124 32z
m68 4 c4 -6 5 -13 2 -16 -8 -7 -47 7 -47 18 0 13 37 11 45 -2z m-240 -186 l28
-38 -31 29 c-18 17 -32 33 -32 38 0 15 7 9 35 -29z m-219 -69 c-3 -9 -6 -18
-6 -20 0 -2 -4 -4 -9 -4 -5 0 -7 9 -4 20 3 11 10 20 15 20 6 0 7 -7 4 -16z
m-2641 -183 c-3 -6 -11 -11 -16 -11 -5 0 -4 6 3 14 14 16 24 13 13 -3z m145 9
c12 -8 11 -10 -8 -10 -20 0 -21 -3 -12 -20 9 -17 8 -20 -7 -20 -10 0 -27 7
-37 15 -37 28 23 61 64 35z m24 -486 c4 -9 5 -19 2 -21 -6 -6 -46 20 -46 29 0
15 38 8 44 -8z m-49 -35 c11 -17 2 -18 -19 -3 -17 12 -17 14 -4 14 9 0 20 -5
23 -11z"/>
<path d="M3035 1840 c-3 -6 1 -7 9 -4 18 7 21 14 7 14 -6 0 -13 -4 -16 -10z"/>
<path d="M1770 1960 c0 -5 4 -10 9 -10 6 0 13 5 16 10 3 6 -1 10 -9 10 -9 0
-16 -4 -16 -10z"/>
<path d="M1895 1920 c-3 -5 3 -10 14 -10 12 0 21 5 21 10 0 6 -6 10 -14 10 -8
0 -18 -4 -21 -10z"/>
<path d="M1690 1860 c0 -5 7 -10 15 -10 8 0 15 5 15 10 0 6 -7 10 -15 10 -8 0
-15 -4 -15 -10z"/>
<path d="M1805 1820 c-3 -5 3 -10 15 -10 12 0 18 5 15 10 -3 6 -10 10 -15 10
-5 0 -12 -4 -15 -10z"/>
<path d="M1600 1770 c0 -5 4 -10 9 -10 6 0 13 5 16 10 3 6 -1 10 -9 10 -9 0
-16 -4 -16 -10z"/>
<path d="M1410 1711 c0 -5 6 -14 14 -20 16 -14 27 -59 15 -67 -13 -8 1 -32 21
-37 21 -5 50 21 43 41 -3 6 -10 12 -18 12 -7 0 -24 18 -39 40 -26 40 -36 48
-36 31z"/>
<path d="M1680 1710 c0 -5 7 -10 15 -10 8 0 15 5 15 10 0 6 -7 10 -15 10 -8 0
-15 -4 -15 -10z"/>
<path d="M1540 1610 c0 -5 5 -10 10 -10 6 0 10 5 10 10 0 6 -4 10 -10 10 -5 0
-10 -4 -10 -10z"/>
<path d="M1320 1590 c0 -5 5 -10 10 -10 6 0 10 5 10 10 0 6 -4 10 -10 10 -5 0
-10 -4 -10 -10z"/>
<path d="M1400 1580 c0 -5 5 -10 10 -10 6 0 10 5 10 10 0 6 -4 10 -10 10 -5 0
-10 -4 -10 -10z"/>
<path d="M1305 1551 c-33 -7 -39 -28 -13 -45 15 -9 24 -5 50 22 35 35 30 38
-37 23z"/>
<path d="M1390 1520 c0 -5 5 -10 11 -10 5 0 7 5 4 10 -3 6 -8 10 -11 10 -2 0
-4 -4 -4 -10z"/>
<path d="M1153 1487 c-46 -31 -41 -40 20 -32 61 9 65 11 51 33 -16 24 -34 24
-71 -1z"/>
<path d="M1090 1490 c0 -5 5 -10 11 -10 5 0 7 5 4 10 -3 6 -8 10 -11 10 -2 0
-4 -4 -4 -10z"/>
<path d="M957 1423 c-26 -13 -45 -28 -43 -31 2 -4 31 -5 65 -4 50 3 61 7 61
21 0 17 -19 42 -29 40 -4 -1 -27 -12 -54 -26z"/>
<path d="M760 1380 c-62 -24 -61 -38 2 -39 64 0 79 7 71 37 -6 26 -13 26 -73
2z"/>
<path d="M266 1371 c-4 -5 -2 -12 3 -15 5 -4 12 -2 15 3 4 5 2 12 -3 15 -5 4
-12 2 -15 -3z"/>
<path d="M533 1344 c-24 -9 -43 -19 -43 -24 0 -11 86 -23 111 -15 14 5 19 14
17 28 -4 27 -30 31 -85 11z"/>
<path d="M300 1328 c-19 -5 -42 -16 -50 -25 -13 -14 -12 -15 13 -10 16 2 45 1
65 -4 42 -9 65 1 67 30 1 17 -4 21 -29 20 -17 0 -47 -5 -66 -11z"/>
<path d="M190 1310 c0 -5 5 -10 11 -10 5 0 7 5 4 10 -3 6 -8 10 -11 10 -2 0
-4 -4 -4 -10z"/>
<path d="M856 2011 c-3 -4 6 -19 19 -31 19 -18 28 -21 37 -12 9 9 7 16 -7 32
-19 21 -40 26 -49 11z"/>
<path d="M800 1993 c0 -5 9 -19 20 -33 14 -19 22 -22 30 -14 17 17 -5 54 -30
54 -11 0 -20 -3 -20 -7z"/>
<path d="M746 1972 c-2 -4 4 -18 13 -31 14 -18 22 -21 34 -14 15 8 15 11 1 31
-15 22 -39 29 -48 14z"/>
<path d="M687 1952 c-9 -14 31 -52 47 -46 19 7 20 14 2 37 -14 17 -41 23 -49
9z"/>
<path d="M643 1943 c-19 -7 -16 -27 6 -47 19 -17 41 -15 41 3 0 17 -35 49 -47
44z"/>
<path d="M570 1911 c0 -20 35 -49 53 -42 16 6 16 8 2 29 -16 21 -55 31 -55 13z"/>
<path d="M2115 2451 c-77 -19 -130 -67 -239 -214 -37 -49 -66 -90 -66 -90 0
-1 123 -2 273 -2 248 0 276 2 321 20 101 41 110 107 20 147 -36 16 -58 19 -95
14 -27 -4 -49 -4 -49 -1 0 3 12 16 27 29 26 23 27 24 10 49 -28 43 -127 66
-202 48z"/>
<path d="M4035 2451 c-6 -5 -59 -18 -120 -30 -60 -12 -112 -25 -115 -28 -3 -3
27 -2 65 2 39 5 104 9 145 10 76 3 93 12 70 40 -14 17 -31 19 -45 6z"/>
<path d="M4090 2372 c0 -6 -7 -18 -16 -26 -14 -15 -14 -16 2 -16 10 0 30 -12
46 -27 38 -36 45 -23 17 28 -23 41 -49 62 -49 41z"/>
<path d="M4076 2063 c-6 -14 -5 -15 5 -6 7 7 10 15 7 18 -3 3 -9 -2 -12 -12z"/>
<path d="M4127 2053 c-8 -12 20 -26 34 -17 12 7 11 24 -2 24 -5 0 -7 -4 -4
-10 3 -5 2 -10 -4 -10 -5 0 -11 5 -13 12 -3 8 -6 9 -11 1z"/>
<path d="M4180 2040 c0 -5 0 -13 0 -17 0 -15 43 -8 48 7 5 13 3 13 -11 1 -15
-12 -17 -11 -17 3 0 9 -4 16 -10 16 -5 0 -10 -4 -10 -10z"/>
<path d="M4235 2020 c-11 -19 30 -37 68 -31 4 0 7 -4 7 -10 0 -8 5 -8 15 1 12
10 15 10 15 -1 0 -10 81 -40 253 -93 302 -94 378 -117 395 -124 8 -3 12 6 12
25 0 28 -4 31 -72 50 -88 25 -479 137 -565 162 -46 14 -65 15 -74 7 -9 -8 -10
-8 -5 2 4 6 3 12 -3 12 -5 0 -16 3 -24 6 -8 3 -18 0 -22 -6z"/>
<path d="M3884 1935 c-10 -8 -14 -14 -9 -14 6 0 19 6 29 14 11 8 15 15 10 15
-6 0 -19 -7 -30 -15z"/>
<path d="M4165 1940 c-3 -5 -1 -10 4 -10 6 0 11 5 11 10 0 6 -2 10 -4 10 -3 0
-8 -4 -11 -10z"/>
<path d="M3910 1920 c-13 -11 -19 -20 -13 -20 5 0 18 9 28 20 10 11 16 20 13
20 -3 0 -15 -9 -28 -20z"/>
<path d="M2400 1919 c0 -5 5 -7 10 -4 6 3 10 8 10 11 0 2 -4 4 -10 4 -5 0 -10
-5 -10 -11z"/>
<path d="M4190 1926 c0 -2 7 -6 15 -10 8 -3 15 -1 15 4 0 6 -7 10 -15 10 -8 0
-15 -2 -15 -4z"/>
<path d="M4239 1909 c-8 -17 -8 -20 2 -17 7 2 13 12 15 21 3 23 -3 21 -17 -4z"/>
<path d="M4277 1913 c-10 -9 -9 -23 2 -23 5 0 11 7 15 15 5 15 -5 20 -17 8z"/>
<path d="M2358 1903 c7 -3 16 -2 19 1 4 3 -2 6 -13 5 -11 0 -14 -3 -6 -6z"/>
<path d="M3954 1896 c-10 -8 -16 -17 -13 -20 3 -3 14 3 24 14 21 23 17 26 -11
6z"/>
<path d="M4318 1880 c-3 -16 -1 -30 4 -30 8 0 10 6 12 33 1 6 6 15 11 19 6 5
3 8 -6 8 -11 0 -18 -11 -21 -30z"/>
<path d="M3977 1881 c-16 -17 -16 -18 9 -30 22 -10 31 -9 50 4 13 8 24 11 24
5 0 -5 8 -10 18 -10 14 0 15 -2 2 -10 -8 -5 -11 -12 -7 -16 4 -4 15 -1 24 8
14 15 12 18 -27 38 -30 15 -45 19 -53 11 -17 -17 -31 -13 -17 4 17 21 -1 18
-23 -4z m53 -16 c-7 -8 -18 -15 -24 -15 -6 0 -2 7 8 15 25 19 32 19 16 0z"/>
<path d="M4356 1884 c-8 -21 -8 -24 3 -24 5 0 11 9 14 20 6 24 -8 27 -17 4z"/>
<path d="M2575 1880 c3 -5 12 -10 18 -10 24 0 86 -60 92 -90 9 -40 25 -48 25
-13 0 33 -41 88 -82 109 -31 16 -62 19 -53 4z"/>
<path d="M4395 1880 c3 -5 1 -10 -4 -10 -6 0 -11 -4 -11 -10 0 -5 7 -7 16 -3
13 5 15 1 10 -18 -7 -23 -7 -24 9 -4 14 17 17 18 25 5 5 -8 10 -13 11 -10 0 3
2 13 4 22 2 9 -4 19 -12 22 -8 3 -11 1 -8 -4 3 -6 -1 -10 -9 -10 -9 0 -16 7
-16 15 0 8 -5 15 -11 15 -5 0 -7 -4 -4 -10z"/>
<path d="M2295 1870 c-3 -5 -1 -18 4 -27 9 -16 10 -14 11 10 0 28 -5 34 -15
17z"/>
<path d="M2508 1858 c-8 -13 -14 -41 -15 -63 -1 -28 0 -31 4 -12 3 20 9 27 19
23 12 -5 14 -1 8 17 -6 20 -4 20 18 -5 13 -16 31 -28 40 -28 9 0 18 -7 22 -15
6 -17 -9 -21 -19 -5 -8 13 -25 13 -25 1 0 -5 10 -13 23 -17 12 -3 30 -13 40
-22 24 -21 28 -12 16 30 -5 21 -23 48 -42 62 -18 15 -39 33 -48 41 -21 20 -24
19 -41 -7z"/>
<path d="M4474 1856 c-10 -27 2 -43 14 -19 8 14 9 24 2 28 -6 3 -13 -1 -16 -9z"/>
<path d="M2213 1854 c-11 -5 -2 -20 40 -61 41 -42 60 -54 68 -46 6 6 -9 30
-37 61 -47 53 -50 54 -71 46z"/>
<path d="M2325 1850 c-4 -6 -1 -10 5 -10 7 0 10 -7 6 -15 -6 -16 18 -45 39
-45 22 0 45 11 45 22 0 6 -6 5 -15 -2 -21 -17 -45 -5 -45 24 0 25 -25 43 -35
26z"/>
<path d="M2601 1837 c23 -15 39 -37 49 -67 8 -27 16 -38 18 -28 5 27 -26 82
-57 101 -42 25 -50 21 -10 -6z"/>
<path d="M4501 1833 c-14 -30 -14 -54 0 -31 8 14 15 15 35 8 32 -13 31 -13 37
9 3 14 -3 21 -28 28 -30 10 -34 8 -44 -14z m49 -3 c0 -5 -2 -10 -4 -10 -3 0
-8 5 -11 10 -3 6 -1 10 4 10 6 0 11 -4 11 -10z"/>
<path d="M4608 1853 c7 -3 16 -2 19 1 4 3 -2 6 -13 5 -11 0 -14 -3 -6 -6z"/>
<path d="M4042 1842 c-20 -6 29 -44 50 -39 10 3 16 1 13 -3 -3 -5 4 -14 16
-20 16 -9 24 -8 38 4 10 9 21 16 26 16 4 0 -2 -9 -14 -19 l-23 -20 34 -17 c18
-9 56 -29 83 -44 28 -15 82 -44 120 -65 39 -21 88 -48 110 -60 22 -12 94 -51
160 -87 66 -36 165 -89 220 -118 55 -29 106 -57 113 -63 9 -7 12 0 12 29 0 44
12 35 -178 135 -64 34 -166 88 -225 120 -59 33 -110 59 -113 59 -3 0 -33 16
-66 36 -34 19 -67 33 -75 30 -8 -3 -11 -2 -8 4 8 12 -53 43 -71 36 -8 -3 -13
-2 -9 3 7 12 -104 73 -118 64 -6 -3 -7 -1 -3 5 11 18 -19 15 -34 -3 -17 -20
-29 -19 -38 3 -4 11 -13 17 -20 14z m118 -36 c0 -2 -7 -7 -16 -10 -8 -3 -12
-2 -9 4 6 10 25 14 25 6z m50 -20 c0 -2 -8 -10 -17 -17 -16 -13 -17 -12 -4 4
13 16 21 21 21 13z m70 -50 c0 -2 -8 -10 -17 -17 -16 -13 -17 -12 -4 4 13 16
21 21 21 13z"/>
<path d="M4350 1840 c-9 -6 -10 -10 -3 -10 6 0 15 5 18 10 8 12 4 12 -15 0z"/>
<path d="M4660 1840 c0 -8 60 -23 67 -17 1 2 -13 8 -32 14 -19 6 -35 8 -35 3z"/>
<path d="M3980 1826 c0 -2 7 -7 16 -10 8 -3 12 -2 9 4 -6 10 -25 14 -25 6z"/>
<path d="M4581 1800 c-5 -16 -8 -30 -5 -30 3 0 -2 -10 -10 -22 -9 -12 -16 -25
-16 -28 0 -4 35 -17 78 -30 42 -13 140 -43 217 -67 150 -46 155 -47 155 -34 0
8 -37 24 -52 22 -5 0 -7 7 -5 17 4 22 26 61 27 45 0 -7 7 -10 16 -6 8 3 14 15
12 26 -2 16 -21 26 -91 48 -66 20 -87 23 -83 13 3 -8 1 -14 -4 -14 -6 0 -10 6
-10 14 0 8 -32 24 -84 40 -91 28 -110 31 -101 16 3 -5 1 -10 -4 -10 -6 0 -11
-5 -11 -11 0 -6 7 -9 15 -5 8 3 15 1 15 -5 0 -6 7 -8 16 -5 13 5 15 2 11 -14
-3 -11 -1 -20 4 -20 5 0 11 11 15 25 3 14 10 25 14 25 5 0 6 -9 3 -20 -4 -16
-2 -19 11 -14 9 4 16 1 16 -6 0 -7 7 -10 16 -6 12 4 14 1 9 -14 -4 -11 -2 -20
4 -20 6 0 11 7 11 15 0 8 5 15 10 15 6 0 10 -4 10 -10 0 -5 6 -7 14 -4 8 3 17
0 21 -5 3 -6 11 -8 17 -5 6 4 8 -1 3 -15 -8 -26 3 -27 21 -3 8 10 13 12 14 5
0 -7 6 -10 14 -7 8 3 17 0 21 -5 3 -6 11 -9 16 -5 6 3 8 -5 5 -20 -5 -30 -25
-67 -26 -48 0 7 -7 12 -16 10 -10 -2 -19 2 -21 8 -2 6 6 10 18 10 24 -1 33 12
21 32 -12 18 -37 6 -49 -26 -10 -25 -11 -25 -12 -4 -1 26 -21 30 -21 5 0 -14
-2 -15 -9 -4 -5 7 -13 11 -19 7 -6 -3 -13 -2 -17 3 -3 6 -12 8 -20 5 -10 -4
-12 0 -8 15 3 12 1 21 -6 21 -6 0 -11 -7 -11 -15 0 -8 -5 -15 -11 -15 -5 0 -7
5 -3 11 4 8 0 9 -15 4 -12 -4 -21 -2 -21 4 0 6 -7 8 -16 4 -13 -5 -15 -1 -10
18 6 22 6 22 -7 7 -14 -17 -57 -15 -57 3 0 5 -7 6 -15 3 -12 -5 -13 -1 -3 27
6 19 15 38 19 44 12 12 11 35 0 35 -5 0 -14 -13 -20 -30z m169 -30 c0 -5 -2
-10 -4 -10 -3 0 -8 5 -11 10 -3 6 -1 10 4 10 6 0 11 -4 11 -10z m40 -10 c0 -5
-4 -10 -10 -10 -5 0 -10 5 -10 10 0 6 5 10 10 10 6 0 10 -4 10 -10z m160 -50
c0 -5 -2 -10 -4 -10 -3 0 -8 5 -11 10 -3 6 -1 10 4 10 6 0 11 -4 11 -10z"/>
<path d="M4430 1810 c-11 -6 -12 -12 -4 -20 14 -14 44 -2 37 16 -6 16 -12 17
-33 4z"/>
<path d="M2200 1803 c0 -12 38 -48 44 -42 3 2 -6 15 -20 28 -13 13 -24 19 -24
14z"/>
<path d="M4865 1774 c55 -18 109 -33 120 -33 11 1 -27 16 -85 35 -58 18 -112
33 -120 33 -8 -1 30 -16 85 -35z"/>
<path d="M4040 1790 c8 -5 20 -10 25 -10 6 0 3 5 -5 10 -8 5 -19 10 -25 10 -5
0 -3 -5 5 -10z"/>
<path d="M4517 1783 c-3 -5 -2 -15 2 -21 9 -15 43 -4 38 12 -5 14 -33 20 -40
9z"/>
<path d="M2118 1773 c7 -3 16 -2 19 1 4 3 -2 6 -13 5 -11 0 -14 -3 -6 -6z"/>
<path d="M4475 1771 c-3 -5 -1 -12 5 -16 5 -3 10 1 10 9 0 18 -6 21 -15 7z"/>
<path d="M4611 1761 c-8 -5 -10 -14 -7 -20 9 -13 33 -15 40 -2 9 14 -18 31
-33 22z"/>
<path d="M4135 1740 c3 -5 8 -10 11 -10 2 0 4 5 4 10 0 6 -5 10 -11 10 -5 0
-7 -4 -4 -10z"/>
<path d="M4082 1724 c9 -9 21 -15 27 -13 6 2 -2 10 -17 17 -25 11 -25 11 -10
-4z"/>
<path d="M4714 1725 c3 -8 1 -15 -3 -15 -5 0 -12 6 -14 13 -4 9 -6 9 -6 -1 -1
-15 24 -26 38 -18 12 8 3 36 -11 36 -6 0 -8 -7 -4 -15z"/>
<path d="M4195 1705 c22 -13 45 -24 50 -24 6 0 -8 11 -30 24 -22 14 -44 25
-50 25 -5 0 8 -11 30 -25z"/>
<path d="M4780 1695 c0 -18 24 -30 39 -21 16 10 1 36 -20 36 -10 0 -19 -7 -19
-15z"/>
<path d="M4152 1684 c20 -9 38 -22 40 -30 2 -9 8 -11 17 -5 11 7 4 14 -27 30
-23 12 -47 21 -54 20 -7 0 4 -7 24 -15z"/>
<path d="M4260 1677 c0 -5 56 -38 175 -102 66 -35 187 -101 350 -191 39 -21
88 -48 110 -59 22 -12 53 -29 70 -38 16 -9 31 -14 34 -12 6 7 9 5 -104 65
-140 74 -220 117 -290 155 -33 18 -87 47 -120 65 -33 18 -97 52 -142 77 -46
24 -83 42 -83 40z"/>
<path d="M4670 1656 c0 -5 244 -84 310 -101 72 -18 -21 18 -145 55 -77 24
-146 45 -152 47 -7 3 -13 3 -13 -1z"/>
<path d="M4971 1651 c-12 -8 -12 -12 -2 -25 16 -19 31 -12 31 15 0 21 -7 23
-29 10z"/>
<path d="M4227 1643 c-4 -3 -7 -9 -7 -13 0 -9 109 -80 121 -80 5 0 9 -4 9 -10
0 -5 11 -12 25 -16 14 -3 25 -10 25 -15 0 -5 7 -9 16 -9 9 0 12 -5 8 -12 -5
-8 -2 -9 9 -5 10 3 17 2 17 -3 0 -6 7 -10 15 -10 8 0 15 -5 15 -11 0 -6 7 -8
16 -5 12 5 14 1 8 -16 -6 -20 -5 -21 8 -10 9 7 23 9 33 6 10 -4 21 -1 25 7 5
7 13 10 17 5 4 -5 2 -11 -4 -13 -7 -3 -13 -11 -13 -19 0 -9 5 -12 10 -9 14 9
13 -8 -2 -23 -18 -18 3 -14 24 5 11 9 18 11 18 5 0 -7 7 -12 15 -12 8 0 15 -7
15 -15 0 -9 6 -12 18 -8 14 5 15 3 5 -8 -22 -23 -14 -32 12 -15 14 9 25 12 25
6 0 -5 7 -10 15 -10 8 0 15 -5 15 -11 0 -6 7 -8 18 -4 14 5 15 4 5 -6 -7 -7
-13 -20 -13 -28 0 -11 4 -10 20 4 11 10 20 13 20 7 0 -7 9 -12 20 -12 11 0 20
-5 20 -11 0 -5 5 -7 10 -4 14 9 13 -8 -2 -23 -9 -9 -9 -12 3 -12 8 0 20 5 27
12 9 9 12 9 12 0 0 -7 6 -12 13 -12 6 0 20 -7 31 -15 18 -13 17 -15 -8 -38
-35 -33 -75 -26 -83 14 -5 28 -23 41 -23 18 0 -19 32 -79 42 -79 5 0 29 -9 53
-20 31 -14 47 -28 51 -46 6 -24 7 -24 25 -8 11 9 19 27 19 40 0 18 -4 21 -22
16 -14 -3 -19 -2 -14 7 4 6 12 9 17 6 15 -10 22 24 9 40 -9 10 -9 15 -1 15 6
0 11 13 11 29 0 26 -8 33 -77 70 -43 23 -105 56 -138 74 -33 18 -100 55 -150
82 -107 57 -156 83 -293 159 -113 62 -106 59 -115 49z m62 -33 c7 0 10 -4 6
-9 -3 -6 -18 -3 -34 7 -16 9 -27 20 -24 25 3 5 13 1 22 -7 10 -9 23 -16 30
-16z m36 -20 c3 -5 1 -10 -4 -10 -6 0 -11 5 -11 10 0 6 2 10 4 10 3 0 8 -4 11
-10z m45 -31 c0 -4 -7 -6 -15 -3 -8 4 -15 10 -15 15 0 4 7 6 15 3 8 -4 15 -10
15 -15z m40 -13 c0 -11 -19 -15 -25 -6 -3 5 1 10 9 10 9 0 16 -2 16 -4z m25
-16 c3 -5 1 -10 -4 -10 -6 0 -11 5 -11 10 0 6 2 10 4 10 3 0 8 -4 11 -10z m45
-26 c0 -2 -7 -4 -15 -4 -8 0 -15 4 -15 10 0 5 7 7 15 4 8 -4 15 -8 15 -10z
m30 -24 c0 -5 -2 -10 -4 -10 -3 0 -8 5 -11 10 -3 6 -1 10 4 10 6 0 11 -4 11
-10z m40 -20 c0 -5 -2 -10 -4 -10 -3 0 -8 5 -11 10 -3 6 -1 10 4 10 6 0 11 -4
11 -10z m115 -60 c3 -5 1 -10 -4 -10 -6 0 -11 5 -11 10 0 6 2 10 4 10 3 0 8
-4 11 -10z m35 -20 c0 -5 -2 -10 -4 -10 -3 0 -8 5 -11 10 -3 6 -1 10 4 10 6 0
11 -4 11 -10z m40 -20 c0 -5 -4 -10 -10 -10 -5 0 -10 5 -10 10 0 6 5 10 10 10
6 0 10 -4 10 -10z m35 -20 c3 -5 1 -10 -4 -10 -6 0 -11 5 -11 10 0 6 2 10 4
10 3 0 8 -4 11 -10z m125 -64 c0 -3 -4 -8 -10 -11 -5 -3 -10 -1 -10 4 0 6 5
11 10 11 6 0 10 -2 10 -4z m70 -95 c0 -5 -7 -12 -16 -15 -12 -4 -14 -13 -10
-31 6 -23 5 -24 -13 -13 -21 13 -18 35 7 56 18 14 32 16 32 3z"/>
<path d="M2521 1596 l-24 -31 28 27 c16 15 27 29 24 31 -2 3 -15 -10 -28 -27z"/>
<path d="M2589 1563 c-13 -16 -12 -17 4 -4 9 7 17 15 17 17 0 8 -8 3 -21 -13z"/>
<path d="M4845 1563 c17 -11 46 -25 65 -33 19 -8 41 -20 48 -27 7 -7 17 -13
22 -13 8 0 23 30 18 35 -3 3 -120 39 -163 51 -12 3 -8 -2 10 -13z"/>
<path d="M2594 1518 l-19 -23 23 19 c21 18 27 26 19 26 -2 0 -12 -10 -23 -22z"/>
<path d="M2416 1439 c11 -13 19 -36 19 -58 0 -34 2 -36 40 -42 22 -3 45 -7 50
-9 25 -6 21 3 -18 44 -23 24 -50 53 -59 65 -10 12 -25 21 -34 21 -15 0 -15 -2
2 -21z"/>
<path d="M4535 1400 c3 -5 8 -10 11 -10 2 0 4 5 4 10 0 6 -5 10 -11 10 -5 0
-7 -4 -4 -10z"/>
<path d="M3139 1393 c0 -5 -2 -18 -5 -30 -3 -19 1 -23 24 -23 37 0 71 23 52
35 -9 5 -15 4 -18 -3 -5 -17 -22 -15 -22 2 0 8 8 17 18 19 9 3 2 5 -15 6 -18
0 -33 -2 -34 -6z"/>
<path d="M3320 1378 c0 -10 5 -18 11 -18 7 0 9 -9 5 -24 -4 -15 -1 -26 6 -28
6 -2 9 -12 5 -21 -8 -22 -57 -23 -57 -1 0 13 -7 15 -30 11 -30 -6 -41 5 -19
19 8 4 6 10 -7 17 -13 7 -19 7 -22 -1 -2 -7 -13 -12 -25 -12 -19 0 -18 -3 10
-22 18 -13 33 -29 33 -36 0 -7 11 -17 24 -22 13 -5 27 -13 30 -18 10 -16 74
-24 96 -12 25 14 25 35 0 67 -11 14 -20 35 -20 47 -1 27 -39 80 -40 54z"/>
<path d="M2200 1368 c0 -30 23 -38 75 -24 57 14 49 24 -25 33 -41 5 -50 3 -50
-9z"/>
<path d="M1990 1363 c0 -5 6 -17 13 -26 11 -16 16 -16 51 -4 22 7 35 16 29 20
-19 12 -93 20 -93 10z"/>
<path d="M4601 1357 c2 -1 12 -9 22 -16 14 -12 17 -11 17 3 0 10 -8 16 -22 16
-12 0 -19 -1 -17 -3z"/>
<path d="M1786 1321 c-3 -4 1 -16 8 -27 13 -18 15 -18 55 0 22 10 38 23 35 27
-7 12 -91 12 -98 0z"/>
<path d="M4693 1313 c-7 -2 -13 -9 -13 -14 0 -4 7 -5 17 -2 11 4 14 3 9 -5 -4
-7 -1 -12 8 -12 18 0 19 2 10 24 -6 17 -11 18 -31 9z"/>
<path d="M4485 1260 c0 -24 -8 -47 -20 -61 -28 -31 -96 -60 -111 -48 -8 6 -16
5 -25 -4 -8 -7 -111 -69 -229 -136 -118 -68 -227 -132 -242 -142 -14 -11 -29
-19 -32 -19 -3 0 -29 -14 -58 -31 -29 -18 -78 -45 -108 -62 -30 -16 -98 -53
-150 -82 -52 -29 -187 -103 -300 -165 -113 -62 -255 -142 -317 -177 -61 -34
-115 -63 -118 -63 -4 0 -19 -8 -33 -18 -15 -10 -65 -39 -112 -64 -47 -25 -125
-68 -175 -95 -49 -27 -108 -58 -130 -69 l-40 -19 103 -3 104 -3 66 44 c37 23
96 58 132 76 36 19 83 46 105 60 22 14 49 31 60 38 11 7 49 30 85 51 36 22 81
49 100 60 19 11 64 36 100 57 138 80 260 143 260 134 0 -14 17 -11 34 6 8 8
22 15 30 15 9 0 16 3 16 8 0 7 30 25 63 38 9 3 17 10 17 15 0 5 8 9 18 9 9 0
26 7 36 15 26 19 42 19 26 0 -7 -8 -18 -15 -25 -15 -8 0 -15 -4 -17 -8 -4 -10
-574 -388 -691 -458 -27 -16 -59 -36 -72 -44 -12 -8 -51 -33 -86 -55 l-63 -40
54 -3 c43 -3 59 1 79 18 14 11 34 23 44 27 9 3 17 9 17 14 0 5 5 9 11 9 5 0
54 29 107 64 194 127 223 145 242 151 11 4 20 11 20 16 0 5 4 9 10 9 8 0 173
102 205 127 6 4 39 26 75 47 108 66 540 335 615 384 75 48 73 47 270 172 185
117 197 127 185 150 -9 16 -85 79 -125 102 -6 4 -10 -9 -10 -32z"/>
<path d="M1589 1269 c-15 -9 1 -39 20 -39 25 1 85 36 73 44 -12 7 -79 4 -93
-5z"/>
<path d="M4771 1261 c-12 -8 -12 -12 -2 -25 16 -19 41 -10 41 15 0 20 -16 24
-39 10z"/>
<path d="M4857 1213 c-12 -11 -7 -33 8 -39 20 -8 45 13 38 32 -5 14 -34 19
-46 7z"/>
<path d="M1407 1198 c-22 -8 -26 -13 -16 -24 17 -21 44 -17 76 11 l28 24 -30
0 c-16 0 -43 -5 -58 -11z"/>
<path d="M1272 1137 c-12 -13 -22 -31 -22 -40 0 -21 -2 -21 40 1 62 31 63 32
43 48 -25 19 -36 17 -61 -9z"/>
<path d="M4820 1075 c-8 -10 -66 -52 -130 -94 -112 -75 -305 -206 -560 -380
-69 -47 -201 -137 -295 -201 -93 -63 -192 -131 -220 -150 -27 -19 -58 -39 -67
-45 -9 -5 -80 -53 -157 -105 -124 -84 -137 -95 -112 -98 29 -3 66 21 561 359
41 29 181 123 310 210 129 88 243 165 253 172 10 6 95 65 188 129 215 147 252
178 248 202 -4 18 -5 18 -19 1z"/>
<path d="M1077 1015 c-26 -24 -47 -46 -47 -49 0 -15 37 -8 45 8 6 12 22 20 43
21 42 3 46 8 38 40 -9 35 -25 32 -79 -20z"/>
<path d="M4987 1013 c-4 -3 -7 -20 -7 -36 0 -32 -42 -77 -115 -125 -22 -15
-74 -54 -115 -87 -90 -73 -65 -54 -240 -178 -80 -57 -184 -132 -232 -167 -48
-36 -126 -92 -173 -125 -47 -33 -91 -65 -98 -70 -64 -54 -79 -65 -212 -157
l-90 -63 74 -3 c61 -2 75 0 87 15 13 17 13 17 14 1 0 -15 9 -18 50 -18 37 0
50 4 50 14 0 8 36 50 80 92 44 43 80 81 80 85 0 8 107 112 142 139 11 8 51 44
90 80 38 36 77 69 85 74 9 5 30 22 47 38 17 17 39 34 49 39 14 8 17 5 17 -18
-1 -19 -17 -46 -50 -83 -27 -30 -47 -56 -45 -58 3 -4 37 31 216 220 45 48 85
86 87 84 5 -6 -93 -124 -188 -225 -19 -21 -55 -61 -79 -90 -25 -28 -63 -71
-85 -95 -23 -24 -51 -56 -64 -71 -17 -19 -27 -24 -35 -16 -9 7 -17 7 -27 -1
-12 -8 -12 -9 2 -4 37 12 25 -15 -38 -80 -36 -38 -63 -61 -60 -51 3 9 1 17 -3
17 -10 0 -25 -30 -22 -43 1 -5 -4 -7 -11 -5 -11 4 -48 -25 -48 -37 0 -3 44 -5
98 -5 l99 0 124 143 c68 78 133 151 144 163 17 17 111 122 201 224 13 14 66
74 118 133 l96 108 0 124 c0 69 -1 125 -3 125 -2 0 -7 -3 -10 -7z"/>
<path d="M1025 1000 c4 -6 11 -8 16 -5 14 9 11 15 -7 15 -8 0 -12 -5 -9 -10z"/>
<path d="M1000 940 c0 -5 -13 -7 -28 -4 -32 7 -58 -16 -48 -42 4 -11 14 -15
33 -11 14 3 39 1 54 -3 27 -8 29 -7 29 19 0 26 -16 51 -32 51 -4 0 -8 -4 -8
-10z"/>
<path d="M88 843 c-4 -19 -3 -24 27 -85 32 -66 81 -56 83 16 1 26 -6 35 -42
59 -51 32 -63 33 -68 10z"/>
<path d="M813 815 c-33 -14 -41 -36 -24 -64 8 -12 12 -12 26 2 9 10 20 17 25
17 4 0 10 8 14 18 3 9 9 23 12 30 7 16 -13 15 -53 -3z"/>
<path d="M5 780 c-3 -5 -3 -16 2 -22 4 -7 9 -24 11 -38 5 -35 18 -46 37 -30
24 20 18 56 -14 80 -18 12 -32 16 -36 10z"/>
<path d="M641 653 c-12 -8 -21 -19 -21 -24 0 -13 25 -39 38 -39 13 0 32 24 37
48 5 26 -26 35 -54 15z"/>
<path d="M2128 663 c6 -2 18 -2 25 0 6 3 1 5 -13 5 -14 0 -19 -2 -12 -5z"/>
<path d="M1982 608 c-18 -18 -15 -38 6 -38 27 0 44 21 31 37 -14 16 -22 16
-37 1z"/>
<path d="M1923 573 c-22 -8 -14 -23 12 -23 16 0 25 6 25 15 0 15 -14 18 -37 8z"/>
<path d="M23 536 c-19 -9 -23 -19 -23 -53 0 -24 2 -43 5 -43 3 0 21 7 40 14
23 10 35 22 35 35 0 11 5 23 10 26 6 3 10 13 10 21 0 17 -44 17 -77 0z"/>
<path d="M1851 541 c-11 -7 -9 -10 8 -16 22 -7 41 0 41 16 0 11 -30 12 -49 0z"/>
<path d="M523 516 c-43 -21 -18 -66 37 -66 16 0 20 6 18 28 -1 15 1 33 6 40 9
15 -29 14 -61 -2z"/>
<path d="M1805 500 c3 -5 8 -10 11 -10 2 0 4 5 4 10 0 6 -5 10 -11 10 -5 0 -7
-4 -4 -10z"/>
<path d="M4940 424 c-49 -59 -102 -123 -147 -179 -9 -11 -59 -69 -111 -130
l-96 -110 204 -3 c111 -1 205 -1 207 1 2 2 2 112 1 245 l-3 241 -55 -65z"/>
<path d="M0 121 l0 -121 203 0 202 1 66 86 c57 74 66 90 57 108 -9 21 -19 22
-156 29 -81 4 -198 9 -259 13 l-113 6 0 -122z"/>
<path d="M4254 158 l-19 -23 25 20 c14 11 27 21 29 22 2 2 0 3 -6 3 -5 0 -18
-10 -29 -22z"/>
</g>
</svg>
